700 0 1 0           
33 Autodesk Inventor 20.0.13800.0000 18 ASM 221.1.0.540 NT 24 Thu Jan 19 13:56:06 2017 
1 9.9999999999999995e-007 1e-010 
body $1 -1 $-1 $2 $-1 $-1 #
DXID-attrib $-1 -1 $-1 $-1 $0 @10 ASM ENTITY @63 C:\Users\Vervaeke-Lab\Desktop\inventor\eyetracker\adapter.ipt\2 #
lump $-1 -1 $-1 $-1 $3 $0 #
shell $-1 -1 $-1 $-1 $-1 $4 $-1 $2 #
face $-1 -1 $-1 $5 $6 $3 $-1 $7 reversed single #
face $-1 -1 $-1 $8 $9 $3 $-1 $10 reversed single #
loop $-1 -1 $-1 $11 $12 $4 #
cone-surface $-1 -1 $-1 -14.500000000000002 50.814761634784837 9.1500000000000004 -0 -1 -0 3.1749999999999998 0 0 1 I I -0 1 3.1749999999999998 reversed I I I I #
face $-1 -1 $-1 $13 $14 $3 $-1 $15 reversed single #
loop $-1 -1 $-1 $16 $17 $5 #
cone-surface $-1 -1 $-1 -25.700000000000003 11.800000000000001 -46.81476163478483 0 0 1 1.1000000000000001 0 0 1 I I -0 1 1.1000000000000001 reversed I I I I #
loop $-1 -1 $-1 $-1 $18 $4 #
coedge $-1 -1 $-1 $12 $12 $19 $20 reversed $6 $-1 #
face $-1 -1 $-1 $21 $22 $3 $-1 $23 reversed single #
loop $-1 -1 $-1 $24 $25 $8 #
cone-surface $-1 -1 $-1 -3.3000000000000003 11.800000000000001 -46.81476163478483 0 0 1 1.1000000000000001 0 0 1 I I -0 1 1.1000000000000001 reversed I I I I #
loop $-1 -1 $-1 $-1 $26 $5 #
coedge $-1 -1 $-1 $17 $17 $27 $28 reversed $9 $-1 #
coedge $-1 -1 $-1 $18 $18 $29 $30 reversed $11 $-1 #
coedge $-1 -1 $-1 $19 $19 $12 $20 forward $31 $-1 #
edge $-1 -1 $-1 $32 -3.1415926535897931 $32 3.1415926535897931 $19 $33 forward @7 unknown #
face $-1 -1 $-1 $34 $35 $3 $-1 $36 reversed single #
loop $-1 -1 $-1 $37 $38 $13 #
cone-surface $-1 -1 $-1 -3.2999999999999998 34.200000000000003 -46.81476163478483 0 0 1 1.1000000000000001 0 0 1 I I -0 1 1.1000000000000001 reversed I I I I #
loop $-1 -1 $-1 $-1 $39 $8 #
coedge $-1 -1 $-1 $25 $25 $40 $41 reversed $14 $-1 #
coedge $-1 -1 $-1 $26 $26 $42 $43 reversed $16 $-1 #
coedge $-1 -1 $-1 $27 $27 $17 $28 forward $44 $-1 #
edge $-1 -1 $-1 $45 -3.1415926535897931 $45 3.1415926535897931 $27 $46 forward @7 unknown #
coedge $-1 -1 $-1 $29 $29 $18 $30 forward $47 $-1 #
edge $-1 -1 $-1 $48 0 $48 6.2831853071795862 $29 $49 forward @7 unknown #
loop $-1 -1 $-1 $50 $19 $51 #
vertex $-1 -1 $-1 $20 $52 #
ellipse-curve $-1 -1 $-1 -14.500000000000002 6.0000000000000053 9.1500000000000004 -0 -1 -0 3.1749999999999998 0 0 1 I I #
face $-1 -1 $-1 $53 $54 $3 $-1 $55 forward single #
loop $-1 -1 $-1 $56 $57 $21 #
cone-surface $-1 -1 $-1 -25.700000000000003 34.200000000000003 -46.81476163478483 0 0 1 1.1000000000000001 0 0 1 I I -0 1 1.1000000000000001 reversed I I I I #
loop $-1 -1 $-1 $-1 $58 $13 #
coedge $-1 -1 $-1 $38 $38 $59 $60 reversed $22 $-1 #
coedge $-1 -1 $-1 $39 $39 $61 $62 reversed $24 $-1 #
coedge $-1 -1 $-1 $40 $40 $25 $41 forward $63 $-1 #
edge $-1 -1 $-1 $64 -3.1415926535897931 $64 3.1415926535897931 $40 $65 forward @7 unknown #
coedge $-1 -1 $-1 $42 $42 $26 $43 forward $66 $-1 #
edge $-1 -1 $-1 $67 0 $67 6.2831853071795862 $42 $68 forward @7 unknown #
loop $-1 -1 $-1 $63 $27 $69 #
vertex $-1 -1 $-1 $28 $70 #
ellipse-curve $-1 -1 $-1 -25.700000000000003 11.800000000000001 0 0 0 1 1.1000000000000001 0 0 1 I I #
loop $-1 -1 $-1 $71 $29 $72 #
vertex $-1 -1 $-1 $30 $73 #
ellipse-curve $-1 -1 $-1 -14.500000000000002 0 9.1500000000000004 0 1 0 3.1749999999999998 0 0 1 I I #
loop $-1 -1 $-1 $-1 $74 $51 #
face $-1 -1 $-1 $72 $31 $3 $-1 $75 forward single #
point $-1 -1 $-1 -17.675000000000001 6.0000000000000053 9.1500000000000004 #
face $-1 -1 $-1 $76 $66 $3 $-1 $77 forward single #
loop $-1 -1 $-1 $-1 $78 $34 #
plane-surface $-1 -1 $-1 -22.400000000000002 6.0000000000000009 4 1 0 0 -0 -0 -10 forward_v I I I I #
loop $-1 -1 $-1 $-1 $79 $21 #
coedge $-1 -1 $-1 $57 $57 $80 $81 reversed $35 $-1 #
coedge $-1 -1 $-1 $58 $58 $82 $83 reversed $37 $-1 #
coedge $-1 -1 $-1 $59 $59 $38 $60 forward $84 $-1 #
edge $-1 -1 $-1 $85 -3.1415926535897931 $85 3.1415926535897931 $59 $86 forward @7 unknown #
coedge $-1 -1 $-1 $61 $61 $39 $62 forward $87 $-1 #
edge $-1 -1 $-1 $88 0 $88 6.2831853071795862 $61 $89 forward @7 unknown #
loop $-1 -1 $-1 $84 $40 $69 #
vertex $-1 -1 $-1 $41 $90 #
ellipse-curve $-1 -1 $-1 -3.3000000000000003 11.800000000000001 0 0 0 1 1.1000000000000001 0 0 1 I I #
loop $-1 -1 $-1 $91 $42 $53 #
vertex $-1 -1 $-1 $43 $92 #
ellipse-curve $-1 -1 $-1 -25.700000000000003 11.800000000000001 4.0000000000000036 0 0 -1 1.1000000000000001 0 0 1 I I #
face $-1 -1 $-1 $51 $44 $3 $-1 $93 forward single #
point $-1 -1 $-1 -26.800000000000001 11.800000000000001 0 #
loop $-1 -1 $-1 $-1 $94 $72 #
face $-1 -1 $-1 $-1 $47 $3 $-1 $95 reversed single #
point $-1 -1 $-1 -11.325000000000003 0 9.1500000000000004 #
coedge $-1 -1 $-1 $96 $97 $98 $99 forward $50 $-1 #
plane-surface $-1 -1 $-1 -14.500000000000004 6.0000000000000009 9.1500000000000021 0 1 0 0 0 10 forward_v I I I I #
face $-1 -1 $-1 $100 $101 $3 $-1 $102 forward single #
plane-surface $-1 -1 $-1 -29.000000000000004 6.0000000000000009 4 0 0 1 10 0 0 forward_v I I I I #
coedge $-1 -1 $-1 $103 $104 $97 $105 reversed $54 $-1 #
coedge $-1 -1 $-1 $79 $79 $106 $107 reversed $56 $-1 #
coedge $-1 -1 $-1 $80 $80 $57 $81 forward $108 $-1 #
edge $-1 -1 $-1 $109 -3.1415926535897931 $109 3.1415926535897931 $80 $110 forward @7 unknown #
coedge $-1 -1 $-1 $82 $82 $58 $83 forward $111 $-1 #
edge $-1 -1 $-1 $112 0 $112 6.2831853071795862 $82 $113 forward @7 unknown #
loop $-1 -1 $-1 $108 $59 $69 #
vertex $-1 -1 $-1 $60 $114 #
ellipse-curve $-1 -1 $-1 -3.2999999999999998 34.200000000000003 0 0 0 1 1.1000000000000001 0 0 1 I I #
loop $-1 -1 $-1 $111 $61 $100 #
vertex $-1 -1 $-1 $62 $115 #
ellipse-curve $-1 -1 $-1 -3.3000000000000003 11.800000000000001 4.0000000000000036 -0 -0 -1 1.1000000000000001 0 0 1 I I #
point $-1 -1 $-1 -4.4000000000000004 11.800000000000001 0 #
loop $-1 -1 $-1 $116 $106 $53 #
point $-1 -1 $-1 -24.600000000000005 11.800000000000001 4 #
plane-surface $-1 -1 $-1 0 0 0 0 0 -1 -10 0 0 forward_v I I I I #
coedge $-1 -1 $-1 $117 $118 $119 $120 reversed $71 $-1 #
plane-surface $-1 -1 $-1 -14.500000000000004 0 9.1500000000000021 0 1 0 0 0 10 forward_v I I I I #
coedge $-1 -1 $-1 $121 $74 $122 $123 forward $50 $-1 #
coedge $-1 -1 $-1 $74 $124 $78 $105 forward $50 $-1 #
coedge $-1 -1 $-1 $125 $126 $74 $99 reversed $116 $-1 #
edge $-1 -1 $-1 $127 0.064999999999999947 $128 0.72500000000000009 $74 $129 forward @7 unknown #
face $-1 -1 $-1 $130 $87 $3 $-1 $131 forward single #
loop $-1 -1 $-1 $-1 $132 $76 #
plane-surface $-1 -1 $-1 -25.700000000000006 37.500000000000007 2 0 1 0 0 0 10 forward_v I I I I #
coedge $-1 -1 $-1 $133 $78 $134 $135 forward $54 $-1 #
coedge $-1 -1 $-1 $78 $133 $125 $136 reversed $54 $-1 #
edge $-1 -1 $-1 $137 -0.65750000000000008 $127 -0.25750000000000006 $97 $138 forward @7 unknown #
coedge $-1 -1 $-1 $106 $106 $79 $107 forward $91 $-1 #
edge $-1 -1 $-1 $139 0 $139 6.2831853071795862 $106 $140 forward @7 unknown #
loop $-1 -1 $-1 $141 $80 $69 #
vertex $-1 -1 $-1 $81 $142 #
ellipse-curve $-1 -1 $-1 -25.700000000000003 34.200000000000003 0 0 0 1 1.1000000000000001 0 0 1 I I #
loop $-1 -1 $-1 $143 $82 $100 #
vertex $-1 -1 $-1 $83 $144 #
ellipse-curve $-1 -1 $-1 -3.2999999999999998 34.200000000000003 4.0000000000000036 -0 -0 -1 1.1000000000000001 0 0 1 I I #
point $-1 -1 $-1 -4.3999999999999995 34.200000000000003 0 #
point $-1 -1 $-1 -2.2000000000000002 11.800000000000001 4 #
loop $-1 -1 $-1 $-1 $98 $53 #
coedge $-1 -1 $-1 $145 $94 $146 $147 reversed $71 $-1 #
coedge $-1 -1 $-1 $94 $145 $148 $149 reversed $71 $-1 #
coedge $-1 -1 $-1 $150 $151 $94 $120 forward $141 $-1 #
edge $-1 -1 $-1 $152 0 $153 2.9000000000000004 $119 $154 forward @7 unknown #
coedge $-1 -1 $-1 $155 $96 $156 $157 forward $50 $-1 #
coedge $-1 -1 $-1 $158 $159 $96 $123 reversed $160 $-1 #
edge $-1 -1 $-1 $128 0.40000000000000002 $161 1.8300000000000001 $122 $162 forward @7 unknown #
coedge $-1 -1 $-1 $97 $163 $164 $165 forward $50 $-1 #
coedge $-1 -1 $-1 $166 $98 $104 $136 forward $116 $-1 #
coedge $-1 -1 $-1 $98 $166 $158 $167 reversed $116 $-1 #
vertex $-1 -1 $-1 $105 $168 #
vertex $-1 -1 $-1 $123 $169 #
straight-curve $-1 -1 $-1 -21.750000000000004 6.0000000000000009 4 -10 0 0 I I #
face $-1 -1 $-1 $170 $171 $3 $-1 $172 forward single #
plane-surface $-1 -1 $-1 -6.6000000000000005 6.0000000000000009 4 0 0 1 10 0 0 forward_v I I I I #
coedge $-1 -1 $-1 $173 $174 $175 $176 forward $101 $-1 #
coedge $-1 -1 $-1 $104 $103 $174 $177 reversed $54 $-1 #
coedge $-1 -1 $-1 $164 $175 $103 $135 reversed $141 $-1 #
edge $-1 -1 $-1 $137 0 $178 3.1500000000000004 $134 $179 forward @7 unknown #
edge $-1 -1 $-1 $127 0 $180 3.1500000000000004 $125 $181 forward @7 unknown #
vertex $-1 -1 $-1 $165 $182 #
straight-curve $-1 -1 $-1 -22.400000000000002 6.0000000000000009 6.5750000000000011 0 0 10 I I #
vertex $-1 -1 $-1 $107 $183 #
ellipse-curve $-1 -1 $-1 -25.700000000000003 34.200000000000003 4.0000000000000036 0 0 -1 1.1000000000000001 0 0 1 I I #
loop $-1 -1 $-1 $-1 $119 $69 #
point $-1 -1 $-1 -26.800000000000001 34.200000000000003 0 #
loop $-1 -1 $-1 $-1 $184 $100 #
point $-1 -1 $-1 -2.1999999999999993 34.200000000000003 4 #
coedge $-1 -1 $-1 $118 $117 $185 $186 reversed $71 $-1 #
coedge $-1 -1 $-1 $187 $188 $117 $147 forward $189 $-1 #
edge $-1 -1 $-1 $190 0 $152 1.8300000000000001 $146 $191 forward @7 unknown #
coedge $-1 -1 $-1 $159 $192 $118 $149 forward $160 $-1 #
edge $-1 -1 $-1 $153 0 $193 1.8300000000000001 $148 $194 forward @7 unknown #
coedge $-1 -1 $-1 $175 $119 $192 $195 forward $141 $-1 #
coedge $-1 -1 $-1 $119 $196 $187 $197 reversed $141 $-1 #
vertex $-1 -1 $-1 $120 $198 #
vertex $-1 -1 $-1 $120 $199 #
straight-curve $-1 -1 $-1 0 0 0 -10 0 0 F 0 F 2.9000000000000004 #
coedge $-1 -1 $-1 $200 $121 $201 $202 forward $50 $-1 #
coedge $-1 -1 $-1 $203 $204 $121 $157 reversed $205 $-1 #
edge $-1 -1 $-1 $161 0 $206 2.9000000000000004 $156 $207 forward @7 unknown #
coedge $-1 -1 $-1 $208 $122 $126 $167 forward $160 $-1 #
coedge $-1 -1 $-1 $122 $148 $203 $209 forward $160 $-1 #
loop $-1 -1 $-1 $-1 $148 $210 #
vertex $-1 -1 $-1 $209 $211 #
straight-curve $-1 -1 $-1 -29.000000000000004 6.0000000000000009 0 0 0 10 I I #
coedge $-1 -1 $-1 $124 $200 $212 $213 forward $50 $-1 #
coedge $-1 -1 $-1 $214 $134 $124 $165 reversed $141 $-1 #
edge $-1 -1 $-1 $215 0.66000000000000003 $137 2.2400000000000002 $164 $216 forward @7 unknown #
coedge $-1 -1 $-1 $126 $125 $217 $218 reversed $116 $-1 #
edge $-1 -1 $-1 $128 0 $219 3.1500000000000004 $158 $220 forward @7 unknown #
point $-1 -1 $-1 -22.400000000000002 6.0000000000000009 4 #
point $-1 -1 $-1 -29.000000000000004 6.0000000000000009 4 #
face $-1 -1 $-1 $221 $222 $3 $-1 $223 forward single #
loop $-1 -1 $-1 $-1 $212 $130 #
plane-surface $-1 -1 $-1 -6.6000000000000005 6.0000000000000009 0 -1 0 0 0 0 10 forward_v I I I I #
coedge $-1 -1 $-1 $217 $132 $208 $224 forward $101 $-1 #
coedge $-1 -1 $-1 $132 $217 $133 $177 forward $101 $-1 #
coedge $-1 -1 $-1 $134 $150 $132 $176 reversed $141 $-1 #
edge $-1 -1 $-1 $178 -0.66000000000000014 $225 -0 $175 $226 forward @7 unknown #
edge $-1 -1 $-1 $180 -0.40000000000000002 $178 -0 $133 $227 forward @7 unknown #
vertex $-1 -1 $-1 $135 $228 #
straight-curve $-1 -1 $-1 -22.400000000000002 6.0000000000000009 0 0 10 0 I I #
vertex $-1 -1 $-1 $136 $229 #
straight-curve $-1 -1 $-1 -22.400000000000002 6.0000000000000009 4 0 10 0 I I #
point $-1 -1 $-1 -22.400000000000002 6.0000000000000009 0 #
point $-1 -1 $-1 -24.600000000000005 34.200000000000003 4 #
coedge $-1 -1 $-1 $230 $231 $200 $232 reversed $143 $-1 #
coedge $-1 -1 $-1 $204 $203 $145 $186 forward $205 $-1 #
edge $-1 -1 $-1 $193 0 $190 2.9000000000000004 $185 $233 forward @7 unknown #
coedge $-1 -1 $-1 $234 $146 $151 $197 forward $189 $-1 #
coedge $-1 -1 $-1 $146 $201 $204 $235 reversed $189 $-1 #
loop $-1 -1 $-1 $-1 $146 $221 #
vertex $-1 -1 $-1 $186 $236 #
straight-curve $-1 -1 $-1 0 0 18.300000000000001 0 0 -10 F 0 F 1.8300000000000001 #
coedge $-1 -1 $-1 $148 $208 $150 $195 reversed $160 $-1 #
vertex $-1 -1 $-1 $149 $237 #
straight-curve $-1 -1 $-1 -29.000000000000004 0 0 0 0 10 F 0 F 1.8300000000000001 #
edge $-1 -1 $-1 $153 0 $225 3.7500000000000004 $150 $238 forward @7 unknown #
coedge $-1 -1 $-1 $151 $214 $239 $240 reversed $141 $-1 #
edge $-1 -1 $-1 $152 0 $241 3.7500000000000004 $151 $242 forward @7 unknown #
point $-1 -1 $-1 0 0 0 #
point $-1 -1 $-1 -29.000000000000004 0 0 #
coedge $-1 -1 $-1 $163 $155 $184 $232 forward $50 $-1 #
coedge $-1 -1 $-1 $188 $243 $155 $202 reversed $189 $-1 #
edge $-1 -1 $-1 $206 0 $244 1.4300000000000002 $201 $245 forward @7 unknown #
coedge $-1 -1 $-1 $185 $156 $159 $209 reversed $205 $-1 #
coedge $-1 -1 $-1 $156 $185 $188 $235 forward $205 $-1 #
loop $-1 -1 $-1 $-1 $185 $246 #
vertex $-1 -1 $-1 $235 $247 #
straight-curve $-1 -1 $-1 -29.000000000000004 6.0000000000000009 18.300000000000001 10 0 0 I I #
coedge $-1 -1 $-1 $192 $158 $173 $224 reversed $160 $-1 #
edge $-1 -1 $-1 $193 0 $161 0.60000000000000009 $159 $248 forward @7 unknown #
face $-1 -1 $-1 $69 $160 $3 $-1 $249 forward single #
point $-1 -1 $-1 -29.000000000000004 6.0000000000000009 18.300000000000001 #
coedge $-1 -1 $-1 $250 $251 $163 $213 reversed $171 $-1 #
edge $-1 -1 $-1 $252 0.057500000000000051 $215 0.45750000000000007 $163 $253 forward @7 unknown #
coedge $-1 -1 $-1 $196 $164 $251 $254 forward $141 $-1 #
vertex $-1 -1 $-1 $165 $255 #
straight-curve $-1 -1 $-1 0 6.0000000000000009 0 -10 0 0 I I #
coedge $-1 -1 $-1 $174 $173 $166 $218 forward $101 $-1 #
edge $-1 -1 $-1 $219 -0.66000000000000014 $180 -0 $166 $256 forward @7 unknown #
vertex $-1 -1 $-1 $167 $257 #
straight-curve $-1 -1 $-1 -29.000000000000004 6.0000000000000009 4 0 10 0 I I #
face $-1 -1 $-1 $246 $189 $3 $-1 $258 forward single #
loop $-1 -1 $-1 $-1 $239 $170 #
plane-surface $-1 -1 $-1 -3.3000000000000003 37.500000000000007 2.0000000000000004 0 1 0 0 0 10 forward_v I I I I #
edge $-1 -1 $-1 $225 -0.40000000000000002 $219 -0 $208 $259 forward @7 unknown #
vertex $-1 -1 $-1 $195 $260 #
straight-curve $-1 -1 $-1 -29.000000000000004 37.500000000000007 0 -10 -0 -0 I I #
straight-curve $-1 -1 $-1 -22.400000000000002 37.500000000000007 0 -0 -0 -10 I I #
point $-1 -1 $-1 -22.400000000000002 37.500000000000007 0 #
point $-1 -1 $-1 -22.400000000000002 37.500000000000007 4 #
coedge $-1 -1 $-1 $261 $184 $243 $262 forward $143 $-1 #
coedge $-1 -1 $-1 $184 $261 $250 $263 reversed $143 $-1 #
edge $-1 -1 $-1 $244 -1.0550000000000002 $252 -0.39500000000000013 $200 $264 forward @7 unknown #
straight-curve $-1 -1 $-1 -29.000000000000004 0 18.300000000000001 10 0 0 F 0 F 2.9000000000000004 #
coedge $-1 -1 $-1 $243 $187 $265 $266 reversed $189 $-1 #
edge $-1 -1 $-1 $190 0 $206 0.60000000000000009 $204 $267 forward @7 unknown #
point $-1 -1 $-1 0 0 18.300000000000001 #
point $-1 -1 $-1 -29.000000000000004 0 18.300000000000001 #
straight-curve $-1 -1 $-1 -29.000000000000004 0 0 0 10 0 I I #
coedge $-1 -1 $-1 $268 $265 $196 $240 forward $222 $-1 #
edge $-1 -1 $-1 $241 0 $269 0.66000000000000003 $196 $270 forward @7 unknown #
vertex $-1 -1 $-1 $197 $271 #
straight-curve $-1 -1 $-1 0 0 0 0 10 0 I I #
coedge $-1 -1 $-1 $201 $234 $230 $262 reversed $189 $-1 #
vertex $-1 -1 $-1 $202 $272 #
straight-curve $-1 -1 $-1 0 6.0000000000000009 18.300000000000001 0 0 -10 I I #
face $-1 -1 $-1 $210 $205 $3 $-1 $273 forward single #
point $-1 -1 $-1 0 6.0000000000000009 18.300000000000001 #
straight-curve $-1 -1 $-1 -29.000000000000004 0 18.300000000000001 0 10 0 I I #
plane-surface $-1 -1 $-1 -29.000000000000004 0 0 -1 0 0 0 0 10 forward_v I I I I #
coedge $-1 -1 $-1 $274 $212 $231 $263 forward $171 $-1 #
coedge $-1 -1 $-1 $212 $274 $214 $254 reversed $171 $-1 #
vertex $-1 -1 $-1 $232 $275 #
straight-curve $-1 -1 $-1 -6.5999999999999996 6.0000000000000009 4.5750000000000011 0 0 -10 I I #
edge $-1 -1 $-1 $215 0 $269 3.1500000000000004 $214 $276 forward @7 unknown #
point $-1 -1 $-1 -6.6000000000000005 6.0000000000000009 0 #
straight-curve $-1 -1 $-1 -22.400000000000002 37.500000000000007 4 10 0 0 I I #
point $-1 -1 $-1 -29.000000000000004 37.500000000000007 4 #
plane-surface $-1 -1 $-1 0 0 18.300000000000001 1 0 0 0 0 -10 forward_v I I I I #
straight-curve $-1 -1 $-1 -29.000000000000004 37.500000000000007 4 0 0 10 I I #
point $-1 -1 $-1 -29.000000000000004 37.500000000000007 0 #
coedge $-1 -1 $-1 $231 $230 $277 $278 reversed $143 $-1 #
edge $-1 -1 $-1 $244 0 $279 3.1500000000000004 $230 $280 forward @7 unknown #
edge $-1 -1 $-1 $252 0 $281 3.1500000000000004 $250 $282 forward @7 unknown #
straight-curve $-1 -1 $-1 -10.550000000000001 6.0000000000000009 4 -10 0 0 I I #
coedge $-1 -1 $-1 $239 $277 $234 $266 forward $222 $-1 #
edge $-1 -1 $-1 $279 0 $241 0.40000000000000002 $234 $283 forward @7 unknown #
straight-curve $-1 -1 $-1 0 0 18.300000000000001 0 10 0 I I #
coedge $-1 -1 $-1 $277 $239 $274 $284 forward $222 $-1 #
vertex $-1 -1 $-1 $254 $285 #
straight-curve $-1 -1 $-1 0 37.500000000000007 0 -10 0 0 I I #
point $-1 -1 $-1 0 37.500000000000007 0 #
point $-1 -1 $-1 0 6.0000000000000009 4 #
plane-surface $-1 -1 $-1 -29.000000000000004 0 18.300000000000001 0 0 1 10 0 0 forward_v I I I I #
coedge $-1 -1 $-1 $251 $250 $268 $284 reversed $171 $-1 #
point $-1 -1 $-1 -6.6000000000000005 6.0000000000000009 4 #
straight-curve $-1 -1 $-1 -6.6000000000000005 6.0000000000000009 0 0 10 0 I I #
coedge $-1 -1 $-1 $265 $268 $261 $278 forward $222 $-1 #
edge $-1 -1 $-1 $281 0 $279 0.66000000000000003 $261 $286 forward @7 unknown #
vertex $-1 -1 $-1 $262 $287 #
straight-curve $-1 -1 $-1 0 6.0000000000000009 4 0 10 0 I I #
vertex $-1 -1 $-1 $263 $288 #
straight-curve $-1 -1 $-1 -6.6000000000000005 6.0000000000000009 4 0 10 0 I I #
straight-curve $-1 -1 $-1 0 37.500000000000007 4 0 0 -10 I I #
edge $-1 -1 $-1 $269 0 $281 0.40000000000000002 $274 $289 forward @7 unknown #
point $-1 -1 $-1 -6.6000000000000005 37.500000000000007 0 #
straight-curve $-1 -1 $-1 -6.6000000000000005 37.500000000000007 4 10 0 0 I I #
point $-1 -1 $-1 0 37.500000000000007 4 #
point $-1 -1 $-1 -6.6000000000000005 37.500000000000007 4 #
straight-curve $-1 -1 $-1 -6.6000000000000005 37.500000000000007 0 0 0 10 I I #
End-of-ACIS-data 